# Blender v2.79 (sub 0) OBJ File: ''
# www.blender.org
o group_0_undefined.001
v 0.489314 0.114099 -0.614981
v 0.488800 0.014100 -0.614973
v -0.511180 0.019240 -0.611169
v -0.510666 0.119239 -0.611178
v -0.501156 0.119405 1.888806
v -0.501670 0.019406 1.888813
v 0.498310 0.014265 1.885010
v 0.498824 0.114264 1.885001
v -0.209797 0.217749 0.034576
v -0.155727 0.217441 -0.314832
v -0.245561 0.217926 -0.034888
v -0.154188 0.217467 0.089765
v -0.258055 0.217984 -0.112141
v -0.210915 0.217730 -0.259222
v -0.246149 0.217916 -0.189487
v -0.246663 0.117917 -0.189479
v -0.258569 0.117985 -0.112133
v -0.246075 0.117928 -0.034880
v -0.210311 0.117750 0.034585
v 0.137553 0.115933 -0.315941
v 0.067820 0.116288 -0.351176
v 0.068334 0.216287 -0.351185
v 0.138067 0.215931 -0.315950
v -0.154702 0.117469 0.089774
v 0.139092 0.115958 0.088656
v 0.194281 0.115670 0.033046
v 0.194795 0.215669 0.033037
v 0.139606 0.215957 0.088647
v -0.009525 0.116684 -0.363082
v -0.009011 0.216683 -0.363091
v -0.086263 0.217081 -0.350597
v -0.084454 0.217112 0.125000
v -0.007109 0.216715 0.136906
v 0.070143 0.216317 0.124412
v 0.230029 0.215482 -0.036697
v 0.241642 0.215415 -0.112142
v 0.241628 0.215415 -0.115942
v 0.229441 0.215471 -0.191296
v 0.193677 0.215650 -0.260761
v -0.100051 0.117151 -0.343758
v -0.156241 0.117443 -0.314823
v -0.086777 0.117083 -0.350588
v -0.211429 0.117731 -0.259213
v 0.241113 0.115416 -0.115934
v 0.228927 0.115473 -0.191288
v -0.007623 0.116717 0.136915
v 0.229515 0.115483 -0.036689
v 0.069629 0.116319 0.124421
v -0.084968 0.117113 0.125009
v 0.193163 0.115651 -0.260752
v 0.241128 0.115417 -0.112134
vn -0.0038 -0.0001 -1.0000
vn 0.0038 0.0001 1.0000
vn 0.0051 1.0000 -0.0001
vn 0.0052 1.0000 -0.0001
vn -0.9883 0.0051 -0.1521
vn -0.9872 0.0051 0.1597
vn -0.8891 0.0046 0.4578
vn -0.8891 0.0046 0.4577
vn 0.4510 -0.0024 -0.8925
vn -0.7044 0.0037 0.7098
vn 0.7098 -0.0036 0.7044
vn 0.1521 -0.0009 -0.9884
vn 0.0051 1.0000 -0.0000
vn -0.1597 0.0007 -0.9872
vn 1.0000 -0.0051 -0.0038
vn -0.4575 0.0023 -0.8892
vn -0.4577 0.0023 -0.8891
vn -0.4578 0.0023 -0.8891
vn 0.0048 1.0000 -0.0002
vn -1.0000 0.0051 0.0038
vn 0.8925 -0.0045 0.4510
vn 0.8925 -0.0046 0.4510
vn -0.4510 0.0024 0.8925
vn 0.9872 -0.0051 -0.1597
vn 0.9872 -0.0051 -0.1596
vn -0.7098 0.0036 -0.7044
vn -0.1521 0.0009 0.9884
vn 0.9883 -0.0051 0.1521
vn 0.1597 -0.0007 0.9872
vn 0.8891 -0.0046 -0.4578
vn 0.8891 -0.0046 -0.4577
vn -0.8925 0.0045 -0.4510
vn -0.8925 0.0046 -0.4510
vn 0.4578 -0.0023 0.8891
vn 1.0000 -0.0052 -0.0039
vn 1.0000 -0.0051 -0.0037
vn 0.7044 -0.0037 -0.7098
vn -0.0051 -1.0000 0.0001
vn 0.0047 1.0000 -0.0003
s 1
f 1//1 2//1 3//1
f 1//1 3//1 4//1
f 5//2 6//2 7//2
f 5//2 7//2 8//2
f 9//3 10//3 11//3
f 12//3 10//3 9//3
f 13//3 11//3 10//3
f 13//3 10//3 14//4
f 13//3 14//4 15//3
f 16//5 17//5 13//5
f 16//5 13//5 15//5
f 17//6 18//6 11//6
f 17//6 11//6 13//6
f 18//7 19//8 9//7
f 18//7 9//7 11//7
f 20//9 21//9 22//9
f 20//9 22//9 23//9
f 19//10 24//10 12//10
f 19//10 12//10 9//10
f 25//11 26//11 27//11
f 25//11 27//11 28//11
f 21//12 29//12 30//12
f 21//12 30//12 22//12
f 10//3 12//3 31//3
f 30//3 31//3 12//3
f 30//3 12//3 32//3
f 30//3 32//3 33//3
f 30//3 33//3 34//3
f 30//3 34//3 28//3
f 30//3 28//3 27//3
f 30//3 27//3 35//3
f 30//3 35//3 36//3
f 30//3 36//3 37//13
f 30//3 37//13 38//3
f 30//3 38//3 39//3
f 30//3 39//3 23//3
f 30//3 23//3 22//13
f 40//3 4//3 41//3
f 42//14 31//14 30//14
f 42//14 30//14 29//14
f 8//15 7//15 2//15
f 8//15 2//15 1//15
f 41//3 4//3 43//3
f 42//16 40//17 31//17
f 10//18 31//17 40//17
f 40//17 41//18 10//18
f 44//19 1//3 45//3
f 5//20 4//20 6//20
f 3//20 6//20 4//20
f 5//3 8//3 46//3
f 47//21 35//22 27//21
f 47//21 27//21 26//21
f 48//3 8//3 25//3
f 24//23 49//23 32//23
f 24//23 32//23 12//23
f 37//24 44//25 45//25
f 37//24 45//25 38//24
f 41//26 43//26 14//26
f 41//26 14//26 10//26
f 45//3 1//3 50//3
f 49//27 46//27 33//27
f 49//27 33//27 32//27
f 25//3 8//3 26//3
f 51//28 36//28 35//28
f 51//28 35//28 47//28
f 33//29 46//29 48//29
f 33//29 48//29 34//29
f 45//30 50//30 39//30
f 45//30 39//30 38//31
f 43//32 16//33 15//32
f 43//32 15//32 14//32
f 50//3 1//3 20//3
f 26//3 8//3 47//3
f 8//3 1//3 47//3
f 48//34 25//34 28//34
f 48//34 28//34 34//34
f 20//3 1//3 21//3
f 51//35 44//35 37//36
f 51//35 37//36 36//36
f 50//37 20//37 23//37
f 50//37 23//37 39//37
f 2//38 7//38 6//38
f 2//38 6//38 3//38
f 4//3 42//3 29//3
f 48//3 46//3 8//3
f 46//3 49//3 5//3
f 19//3 18//3 5//3
f 40//3 42//3 4//3
f 24//3 5//3 49//3
f 21//3 1//3 29//3
f 4//3 29//3 1//3
f 51//39 47//3 1//3
f 44//19 51//39 1//3
f 4//3 5//3 18//3
f 17//4 4//3 18//3
f 4//3 17//4 16//3
f 4//3 16//3 43//3
f 19//3 5//3 24//3
