# Blender v2.79 (sub 0) OBJ File: ''
# www.blender.org
o group_0_undefined.014
v 1.260301 0.239800 -0.000000
v 1.500000 0.000000 -0.000000
v -1.260200 0.239800 -0.000000
v -1.500000 0.000000 -0.000000
v -1.260200 0.000000 0.239700
v 1.260300 0.000000 0.239700
v -0.740000 0.000000 0.240000
v -0.740000 0.110000 0.240000
v -0.340900 0.110000 0.240000
v -0.340900 0.000000 0.240000
v -1.500000 1.000000 0.200000
v -1.500000 1.000000 0.000000
v -1.500000 0.986400 0.200000
v -0.740000 0.110000 0.760000
v -0.740000 -0.000000 0.760000
v 1.500000 0.200000 1.000000
v 1.500000 -0.000000 1.000000
v 1.500000 0.200000 0.986400
v 0.740000 0.760000 0.110000
v 0.740000 0.760000 0.000000
v 0.340900 0.760000 0.000000
v 0.340900 0.760000 0.110000
v 1.500000 1.000000 0.000000
v -1.260200 0.760300 0.000000
v 1.260301 0.760300 0.000000
v 0.340900 0.110000 0.760000
v 0.340900 0.110000 0.240000
v 0.340900 0.000000 0.240000
v 0.340900 -0.000000 0.760000
v 0.740000 0.000000 0.240000
v 0.740000 -0.000000 0.760000
v -0.340900 0.760000 0.110000
v -0.340900 0.760000 0.000000
v -0.740000 0.760000 0.000000
v -0.740000 0.760000 0.110000
v -0.340900 -0.000000 0.760000
v 1.260300 0.110300 0.239700
v 1.260300 -0.000000 0.760200
v 1.260300 0.110300 0.760200
v 1.500000 0.986400 0.200000
v -1.500000 0.200000 0.986400
v 0.340900 0.240000 -0.000000
v 0.740000 0.240000 -0.000000
v -1.260200 0.110300 0.239700
v -1.260200 0.110300 0.760200
v 0.740000 0.110000 0.240000
v 0.740000 0.110000 0.760000
v -0.740000 0.240000 -0.000000
v -0.340900 0.240000 -0.000000
v -1.260200 0.760300 0.110200
v -1.260200 -0.000000 0.760200
v -0.740000 0.240000 0.110000
v -0.340900 0.110000 0.760000
v -1.500000 0.200000 1.000000
v -1.500000 -0.000000 1.000000
v 1.260301 0.760300 0.110200
v 1.500000 1.000000 0.200000
v 0.340900 0.240000 0.110000
v 0.740000 0.240000 0.110000
v -1.260200 0.239800 0.110200
v -0.340900 0.240000 0.110000
v 1.260301 0.239800 0.110200
vn 0.0000 0.0000 -1.0000
vn -0.0000 -1.0000 -0.0000
vn -1.0000 0.0000 0.0000
vn 1.0000 0.0000 0.0000
vn 0.0000 1.0000 0.0000
vn 0.0000 0.7071 0.7071
vn 0.0000 -0.0000 1.0000
s 1
f 1//1 2//1 3//1
f 4//1 3//1 2//1
f 5//2 2//2 6//2
f 7//1 8//1 9//1
f 7//1 9//1 10//1
f 11//3 12//3 13//3
f 14//3 8//3 7//3
f 14//3 7//3 15//3
f 16//4 17//4 18//4
f 19//5 20//5 21//5
f 19//5 21//5 22//5
f 12//1 23//1 24//1
f 25//1 24//1 23//1
f 26//3 27//3 28//3
f 26//3 28//3 29//3
f 29//2 28//2 30//2
f 29//2 30//2 31//2
f 24//1 3//1 12//1
f 4//1 12//1 3//1
f 32//5 33//5 34//5
f 32//5 34//5 35//5
f 15//2 7//2 10//2
f 15//2 10//2 36//2
f 37//3 38//3 39//3
f 1//1 25//1 23//1
f 1//1 23//1 2//1
f 18//6 40//6 13//6
f 18//6 13//6 41//6
f 42//1 21//1 20//1
f 42//1 20//1 43//1
f 5//4 44//4 45//4
f 44//7 5//7 37//7
f 31//4 30//4 46//4
f 31//4 46//4 47//4
f 48//1 34//1 33//1
f 48//1 33//1 49//1
f 31//7 47//7 26//7
f 31//7 26//7 29//7
f 24//4 50//4 3//4
f 18//4 2//4 40//4
f 23//4 40//4 2//4
f 2//4 18//4 17//4
f 39//1 38//1 51//1
f 39//1 51//1 45//1
f 52//3 35//3 34//3
f 52//3 34//3 48//3
f 36//7 53//7 14//7
f 36//7 14//7 15//7
f 37//2 39//2 45//2
f 37//2 45//2 44//2
f 16//5 18//5 41//5
f 16//5 41//5 54//5
f 36//4 10//4 9//4
f 36//4 9//4 53//4
f 55//2 4//2 51//2
f 5//2 51//2 4//2
f 25//3 1//3 56//3
f 47//5 46//5 27//5
f 47//5 27//5 26//5
f 17//7 16//7 54//7
f 17//7 54//7 55//7
f 38//2 17//2 51//2
f 55//2 51//2 17//2
f 40//7 57//7 11//7
f 40//7 11//7 13//7
f 58//2 42//2 43//2
f 58//2 43//2 59//2
f 58//3 22//3 21//3
f 58//3 21//3 42//3
f 2//2 5//2 4//2
f 6//2 2//2 38//2
f 53//5 9//5 8//5
f 53//5 8//5 14//5
f 60//4 3//4 50//4
f 52//2 48//2 49//2
f 52//2 49//2 61//2
f 17//2 38//2 2//2
f 23//5 12//5 11//5
f 55//3 41//3 4//3
f 50//2 24//2 56//2
f 25//2 56//2 24//2
f 62//3 56//3 1//3
f 57//5 23//5 11//5
f 41//3 13//3 4//3
f 62//5 1//5 60//5
f 3//5 60//5 1//5
f 12//3 4//3 13//3
f 43//4 20//4 19//4
f 43//4 19//4 59//4
f 56//1 62//1 60//1
f 56//1 60//1 50//1
f 54//3 41//3 55//3
f 49//4 33//4 32//4
f 49//4 32//4 61//4
f 38//3 37//3 6//3
f 59//7 19//7 22//7
f 59//7 22//7 58//7
f 61//7 32//7 35//7
f 61//7 35//7 52//7
f 57//4 40//4 23//4
f 45//4 51//4 5//4
f 5//7 6//7 37//7
f 28//1 27//1 46//1
f 28//1 46//1 30//1
