# Blender v2.79 (sub 0) OBJ File: ''
# www.blender.org
o group_0_undefined.021
v 0.499900 0.000100 -0.303000
v 0.499900 0.012750 0.301470
v 0.499900 0.000100 0.289000
v 0.499900 0.199900 -0.500000
v 0.499900 0.699900 -0.007000
v 0.499900 0.183870 -0.484190
v 0.499900 0.199700 0.484370
v 0.499900 0.199700 0.485800
v -0.260300 0.000100 -0.482510
v -0.260300 0.000100 -0.472570
v -0.500000 0.000100 -0.472570
v -0.500000 0.000100 -0.482510
v 0.499900 0.002830 -0.305690
v 0.499900 0.199900 0.486000
v 0.399900 0.199900 -0.500000
v -0.260300 0.012080 0.260300
v -0.260300 0.110200 0.260300
v -0.260300 0.012150 0.264400
v 0.399900 0.699900 -0.007000
v 0.260200 0.101260 -0.484400
v 0.260200 0.113500 0.262500
v 0.260100 0.104930 -0.260200
v -0.260300 0.104930 -0.260200
v -0.260400 0.003570 -0.260200
v -0.260300 0.003570 -0.260200
v 0.260200 0.012150 0.264400
v 0.260200 0.000100 -0.472570
v -0.260300 0.113500 0.262500
v 0.260100 0.110200 0.061160
v -0.260400 0.012080 0.260300
v -0.260400 0.110200 0.260300
v 0.399900 0.012750 0.301470
v 0.399900 0.000100 0.289000
v 0.500000 0.000100 -0.482510
v 0.500000 0.000100 -0.472570
v 0.260200 0.000100 -0.482510
v 0.500000 0.199700 0.484370
v 0.500000 0.183840 -0.485940
v -0.260300 0.110200 0.061160
v 0.399900 0.000100 -0.303000
v 0.399900 0.002830 -0.305690
v 0.260000 0.000100 -0.482510
v 0.260000 0.101060 -0.484390
v 0.260000 0.000100 -0.470150
v -0.260300 0.101260 -0.484400
v -0.260000 0.000100 -0.482510
v -0.260000 0.000100 -0.470150
v -0.260000 0.101060 -0.484390
v -0.260000 0.003580 -0.260200
v -0.260000 0.104710 -0.260200
v -0.500000 0.183840 -0.485940
v 0.260000 0.003580 -0.260200
v -0.500000 0.016000 0.500000
v 0.260000 0.104710 -0.260200
v 0.399900 0.199700 0.485800
v 0.399900 0.183870 -0.484190
v 0.399900 0.199900 0.486000
v 0.399900 0.199700 0.484370
v -0.500000 0.199700 0.496600
v 0.500000 0.199700 0.496600
v -0.500000 0.199700 0.484370
v 0.500000 0.016000 0.500000
v 0.260100 0.110200 -0.260200
v -0.260400 0.110200 -0.260200
vn 1.0000 0.0000 0.0000
vn 0.0000 -1.0000 0.0000
vn 0.0000 -0.7022 -0.7120
vn 0.0000 0.7021 -0.7121
vn 0.0412 -0.9990 0.0164
vn -0.0005 0.0000 1.0000
vn 0.0000 -0.0000 1.0000
vn -1.0000 0.0000 0.0000
vn 0.0000 -0.9999 0.0164
vn -0.0179 -0.9997 0.0164
vn 0.0000 0.0000 -1.0000
vn 0.0000 -0.7020 0.7122
vn 0.0000 0.9999 -0.0163
vn 0.0098 0.9998 -0.0163
vn 0.0012 0.9999 -0.0165
vn 0.0083 0.9998 -0.0166
vn -0.0000 -0.0187 -0.9998
vn 0.0000 -0.9999 0.0166
vn -0.0000 -0.9999 0.0163
vn 0.0004 -0.9999 0.0167
vn 0.0000 -0.9999 0.0171
vn 0.0000 -0.7071 0.7071
vn -0.0000 -0.7075 0.7067
vn 0.0000 -0.7072 0.7071
vn 0.0000 -0.0186 -0.9998
vn 0.0001 -0.9999 0.0167
vn -1.0000 0.0001 0.0000
vn -1.0000 0.0002 0.0000
vn 0.0000 1.0000 -0.0000
vn 0.0000 0.9999 -0.0164
vn 0.0000 0.7021 0.7121
vn 0.0000 0.9999 -0.0168
vn 0.0000 0.0185 0.9998
vn -0.0178 -0.9997 0.0163
vn 0.0637 -0.9978 0.0163
vn 0.0000 -0.7019 -0.7123
s 1
f 1//1 2//1 3//1
f 4//1 5//1 6//1
f 7//1 5//1 8//1
f 9//2 10//2 11//2
f 9//2 11//2 12//2
f 1//1 13//1 2//1
f 14//1 8//1 5//1
f 7//1 6//1 5//1
f 15//3 4//3 6//3
f 16//1 17//1 18//1
f 15//4 19//4 4//4
f 20//5 21//5 22//5
f 23//6 24//7 25//7
f 26//8 21//8 27//8
f 21//9 28//9 29//9
f 29//10 22//10 21//10
f 30//11 31//11 17//11
f 30//11 17//11 16//11
f 32//12 33//12 3//12
f 32//12 3//12 2//12
f 34//2 35//2 27//2
f 34//2 27//2 36//2
f 7//13 37//14 6//15
f 38//16 6//15 37//14
f 39//9 29//9 28//9
f 33//8 32//8 40//8
f 41//8 40//8 32//8
f 42//1 43//1 44//1
f 40//2 1//2 3//2
f 40//2 3//2 33//2
f 23//9 45//9 22//9
f 45//9 20//9 22//9
f 46//8 47//8 48//8
f 49//8 50//8 47//8
f 48//8 47//8 50//8
f 51//17 38//17 20//17
f 51//17 20//17 45//17
f 52//18 49//18 44//18
f 26//19 53//20 18//21
f 52//1 44//1 54//1
f 54//1 44//1 43//1
f 47//18 44//18 49//18
f 55//22 8//23 14//24
f 56//3 15//3 6//3
f 48//25 43//25 42//25
f 48//25 42//25 46//25
f 30//26 11//19 24//19
f 57//22 55//22 14//24
f 11//19 30//26 53//20
f 44//2 47//2 42//2
f 47//2 46//2 42//2
f 58//8 19//8 56//8
f 58//8 55//27 19//8
f 57//28 19//8 55//27
f 16//21 18//21 30//26
f 18//21 53//20 30//26
f 49//7 52//7 54//7
f 49//7 54//7 50//7
f 59//29 60//29 55//29
f 58//13 56//30 61//13
f 19//31 57//31 14//31
f 19//31 14//31 5//31
f 10//19 25//19 24//19
f 10//19 24//19 11//19
f 58//29 61//29 55//29
f 59//29 55//29 61//29
f 51//32 61//13 56//30
f 5//4 4//4 19//4
f 32//9 62//9 26//19
f 53//20 26//19 62//9
f 62//9 32//9 2//9
f 38//16 51//32 56//30
f 38//16 56//30 6//15
f 15//8 56//8 19//8
f 29//8 63//8 22//8
f 41//9 32//9 26//19
f 41//9 26//19 27//9
f 60//1 62//1 37//1
f 29//2 39//2 63//2
f 64//2 63//2 39//2
f 64//7 23//6 63//7
f 22//7 63//7 23//6
f 60//33 53//33 62//33
f 28//17 21//17 18//17
f 37//29 7//29 8//29
f 8//29 55//29 60//29
f 37//29 8//29 60//29
f 37//1 35//1 38//1
f 35//34 62//34 13//34
f 2//35 13//35 62//35
f 28//1 18//1 17//1
f 34//1 38//1 35//1
f 35//1 37//1 62//1
f 36//8 27//8 20//8
f 27//8 21//8 20//8
f 20//17 38//17 34//17
f 20//17 34//17 36//17
f 9//1 45//1 10//1
f 25//1 10//1 23//1
f 12//8 11//8 51//8
f 53//8 61//8 11//8
f 51//8 11//8 61//8
f 23//1 10//1 45//1
f 9//17 12//17 45//17
f 51//17 45//17 12//17
f 61//8 53//8 59//8
f 31//1 30//1 64//1
f 39//2 17//2 31//2
f 26//17 18//17 21//17
f 43//13 48//13 50//13
f 43//13 50//13 54//13
f 40//36 41//36 13//36
f 40//36 13//36 1//36
f 35//9 41//9 27//9
f 13//9 41//9 35//9
f 53//33 60//33 59//33
f 17//1 39//1 28//1
f 24//1 64//1 30//1
f 64//2 39//2 31//2
f 64//7 24//7 23//6
