# Blender v2.79 (sub 0) OBJ File: ''
# www.blender.org
o group_0_undefined.017
v 0.499900 0.199700 0.484370
v 0.500000 0.199700 0.484370
v 0.499900 0.183870 -0.484190
v 0.500000 0.183840 -0.485940
v 0.499900 0.640900 0.235700
v 0.499900 0.615600 0.277800
v 0.499900 0.586400 0.317200
v 0.499900 0.553500 0.353600
v 0.499900 0.517100 0.386500
v 0.499900 0.477700 0.415700
v 0.499900 0.435600 0.441000
v 0.499900 0.391200 0.461900
v 0.499900 0.345000 0.478500
v 0.499900 0.297400 0.490400
v 0.499900 0.248900 0.497600
v 0.499900 0.199900 0.486000
v 0.499900 0.199700 0.485800
v 0.499900 0.199900 0.500000
v 0.500000 0.199700 0.496600
v 0.500000 0.016000 0.500000
v 0.500000 0.000100 -0.472570
v 0.399900 0.199900 0.500000
v 0.399900 0.248900 0.497600
v -0.260400 0.110200 -0.260200
v -0.260300 0.104930 -0.260200
v 0.260100 0.110200 -0.260200
v 0.260100 0.104930 -0.260200
v 0.499900 0.699900 -0.007000
v 0.399900 0.699900 -0.007000
v 0.399900 0.699570 -0.006680
v 0.499900 0.699570 -0.006680
v -0.260400 0.012080 0.260300
v -0.260400 0.110200 0.260300
v -0.260300 0.012080 0.260300
v 0.499900 0.477700 -0.415700
v 0.499900 0.435600 -0.441000
v 0.499900 0.517100 -0.386500
v 0.499900 0.553500 -0.353600
v 0.499900 0.586400 -0.317200
v 0.499900 0.391200 -0.461900
v 0.499900 0.002830 -0.305690
v 0.499900 0.012750 0.301470
v 0.499900 0.661800 -0.191300
v 0.499900 0.678400 -0.145100
v 0.499900 0.640900 -0.235700
v 0.499900 0.690300 -0.097500
v 0.499900 0.697500 -0.049000
v 0.499900 0.699540 -0.007360
v 0.499900 0.699900 0.000000
v 0.500000 0.000100 -0.482510
v 0.499900 0.697500 0.049000
v 0.499900 0.690300 0.097500
v 0.499900 0.615600 -0.277800
v 0.260200 0.012150 0.264400
v 0.260200 0.113500 0.262500
v 0.260200 0.000100 -0.472570
v 0.260200 0.101260 -0.484400
v 0.260200 0.000100 -0.482510
v -0.260000 0.000100 -0.482510
v -0.260000 0.000100 -0.470150
v -0.260000 0.101060 -0.484390
v -0.260000 0.104710 -0.260200
v 0.399900 0.615600 -0.277800
v 0.399900 0.199700 0.484370
v 0.399900 0.640900 -0.235700
v 0.399900 0.517100 -0.386500
v 0.399900 0.553500 -0.353600
v 0.399900 0.477700 -0.415700
v 0.399900 0.586400 -0.317200
v 0.399900 0.435600 -0.441000
v 0.399900 0.391200 -0.461900
v 0.399900 0.345000 -0.478500
v 0.399900 0.199900 -0.500000
v 0.399900 0.183870 -0.484190
v 0.399900 0.248900 -0.497600
v 0.399900 0.297400 -0.490400
v 0.499900 0.248900 -0.497600
v 0.499900 0.199900 -0.500000
v 0.499900 0.297400 -0.490400
v 0.260000 0.003580 -0.260200
v -0.260000 0.003580 -0.260200
v 0.260000 0.000100 -0.470150
v 0.499900 0.345000 -0.478500
v 0.399900 0.690300 -0.097500
v 0.399900 0.697500 -0.049000
v 0.399900 0.678400 -0.145100
v 0.399900 0.661800 -0.191300
v 0.260000 0.101060 -0.484390
v 0.260000 0.000100 -0.482510
v 0.399900 0.012750 0.301470
v 0.399900 0.000100 0.289000
v 0.499900 0.000100 0.289000
v 0.399900 0.000100 -0.303000
v 0.499900 0.000100 -0.303000
v -0.260300 0.012150 0.264400
v -0.500000 0.016000 0.500000
v 0.260000 0.104710 -0.260200
v -0.500000 0.000100 -0.472570
v 0.399900 0.199900 0.486000
v -0.260300 0.000100 -0.472570
v -0.260300 0.003570 -0.260200
v -0.260400 0.003570 -0.260200
v 0.399900 0.002830 -0.305690
v 0.399900 0.699900 0.000000
v 0.399900 0.697500 0.049000
v -0.500000 0.199700 0.484370
v -0.260300 0.110200 0.260300
v -0.260300 0.110200 0.061160
v -0.260300 0.113500 0.262500
v -0.500000 0.183840 -0.485940
v 0.260100 0.110200 0.061160
v -0.500000 0.000100 -0.482510
v -0.260300 0.101260 -0.484400
v 0.399900 0.297400 0.490400
v 0.399900 0.345000 0.478500
v 0.399900 0.391200 0.461900
v 0.399900 0.435600 0.441000
v 0.399900 0.477700 0.415700
v 0.399900 0.517100 0.386500
v 0.399900 0.553500 0.353600
v 0.399900 0.586400 0.317200
v 0.399900 0.615600 0.277800
v 0.399900 0.640900 0.235700
v 0.399900 0.661800 0.191300
v 0.399900 0.690300 0.097500
v 0.399900 0.678400 0.145100
v 0.399900 0.199700 0.485800
v -0.260300 0.000100 -0.482510
v 0.499900 0.678400 0.145100
v -0.500000 0.199700 0.496600
v 0.499900 0.661800 0.191300
v 0.399900 0.699540 -0.007360
vn 0.0000 0.9999 -0.0163
vn 0.0098 0.9998 -0.0163
vn 0.0012 0.9999 -0.0165
vn 0.0083 0.9998 -0.0166
vn 1.0000 0.0000 0.0000
vn 0.0000 1.0000 0.0000
vn 0.0000 0.0489 0.9988
vn 0.0000 -0.0000 1.0000
vn -0.0005 0.0000 1.0000
vn 0.0000 0.6961 0.7180
vn 0.0000 0.6962 0.7178
vn 0.0000 0.0000 -1.0000
vn -0.0175 -0.9997 0.0163
vn 0.0634 -0.9979 0.0163
vn -1.0000 0.0000 0.0000
vn 0.0000 -0.0187 -0.9998
vn 0.0000 0.0489 -0.9988
vn 0.0000 0.1468 -0.9892
vn 0.0000 -0.9999 0.0166
vn 0.0000 0.2425 -0.9701
vn 0.0000 -1.0000 0.0000
vn 0.0000 -0.0186 -0.9998
vn 0.0000 -0.7020 0.7122
vn 0.0000 -0.7022 -0.7120
vn 0.0000 -0.9999 0.0171
vn -0.0000 -0.9999 0.0163
vn 0.0003 -0.9999 0.0166
vn -0.0000 -0.9999 0.0164
vn 0.0000 0.3381 -0.9411
vn 0.0001 -0.9999 0.0167
vn -1.0000 0.0001 0.0000
vn 0.0000 0.4259 -0.9048
vn 0.0000 0.9999 -0.0164
vn 0.0000 0.5151 -0.8571
vn 0.0412 -0.9990 0.0164
vn 0.0000 0.5954 -0.8034
vn 0.0000 0.9999 -0.0168
vn 0.0000 0.6705 -0.7419
vn -0.0179 -0.9997 0.0164
vn 0.0000 0.0185 0.9998
vn 0.0000 0.7419 -0.6705
vn 0.0000 0.8034 -0.5954
vn 0.0000 0.8571 -0.5151
vn 0.0000 0.9988 -0.0493
vn 0.0000 0.9988 -0.0494
vn 0.0000 0.9988 0.0489
vn 0.0000 0.9048 -0.4259
vn 0.0000 0.9892 0.1468
vn 0.0000 0.9411 -0.3381
vn 0.0000 -0.7072 0.7071
vn 0.0000 -0.7071 0.7071
vn 0.0000 -0.7074 0.7068
vn 0.0000 0.9701 0.2425
vn -1.0000 -0.0004 0.0000
vn 0.0000 0.9701 -0.2425
vn 0.0000 0.9892 -0.1468
vn 0.0000 0.9411 0.3381
vn 0.0000 0.9988 -0.0489
vn 0.0000 -0.7019 -0.7123
vn 0.0000 0.9048 0.4259
vn 0.0000 0.7071 -0.7071
vn 0.0000 0.8571 0.5151
vn 0.0000 0.8034 0.5954
vn 0.0000 0.7419 0.6705
vn 0.0000 0.6705 0.7419
vn 0.0000 0.5954 0.8034
vn 0.0000 0.5151 0.8571
vn 0.0000 0.4259 0.9048
vn 0.0000 0.3381 0.9411
vn 0.0000 0.2425 0.9701
vn 0.0000 0.1468 0.9892
s 1
f 1//1 2//2 3//3
f 4//4 3//3 2//2
f 5//5 6//5 1//5
f 6//5 7//5 1//5
f 7//5 8//5 1//5
f 8//5 9//5 1//5
f 9//5 10//5 1//5
f 10//5 11//5 1//5
f 11//5 12//5 1//5
f 12//5 13//5 1//5
f 13//5 14//5 1//5
f 14//5 15//5 1//5
f 15//5 16//5 1//5
f 17//5 1//5 16//5
f 18//5 16//5 15//5
f 2//6 1//6 17//6
f 2//6 17//6 19//6
f 19//5 20//5 2//5
f 2//5 21//5 4//5
f 22//7 18//7 15//7
f 22//7 15//7 23//7
f 24//8 25//9 26//8
f 27//8 26//8 25//9
f 28//10 29//11 30//11
f 28//10 30//11 31//10
f 32//12 33//12 34//12
f 35//5 1//5 36//5
f 37//5 1//5 35//5
f 38//5 1//5 37//5
f 39//5 1//5 38//5
f 40//5 36//5 1//5
f 21//13 20//13 41//13
f 42//14 41//14 20//14
f 43//5 44//5 1//5
f 45//5 43//5 1//5
f 44//5 46//5 1//5
f 46//5 47//5 1//5
f 47//5 48//5 1//5
f 31//5 49//5 1//5
f 50//5 4//5 21//5
f 21//5 2//5 20//5
f 28//5 31//5 48//5
f 49//5 51//5 1//5
f 51//5 52//5 1//5
f 53//5 45//5 1//5
f 39//5 53//5 1//5
f 54//15 55//15 56//15
f 57//16 50//16 58//16
f 59//15 60//15 61//15
f 61//15 60//15 62//15
f 63//15 64//15 65//15
f 66//15 64//15 67//15
f 68//15 64//15 66//15
f 69//15 67//15 64//15
f 70//15 64//15 68//15
f 71//15 64//15 70//15
f 72//15 64//15 71//15
f 73//15 74//15 75//15
f 75//15 64//15 76//15
f 76//15 64//15 72//15
f 75//17 77//17 78//17
f 75//17 78//17 73//17
f 76//18 79//18 77//18
f 76//18 77//18 75//18
f 80//19 81//19 82//19
f 60//19 82//19 81//19
f 72//20 83//20 79//20
f 72//20 79//20 76//20
f 58//21 21//21 56//21
f 74//15 64//15 75//15
f 84//15 64//15 85//15
f 86//15 64//15 84//15
f 87//15 64//15 86//15
f 61//22 88//22 89//22
f 61//22 89//22 59//22
f 90//23 91//23 92//23
f 90//23 92//23 42//23
f 93//15 91//15 90//15
f 89//21 82//21 60//21
f 89//21 60//21 59//21
f 93//21 94//21 92//21
f 93//21 92//21 91//21
f 74//24 73//24 78//24
f 74//24 78//24 3//24
f 95//25 54//26 96//27
f 20//28 96//27 54//26
f 81//8 80//8 97//8
f 81//8 97//8 62//8
f 80//5 82//5 97//5
f 97//5 82//5 88//5
f 89//5 88//5 82//5
f 71//29 40//29 83//29
f 71//29 83//29 72//29
f 96//27 98//26 32//30
f 16//21 18//21 99//21
f 22//21 99//21 18//21
f 34//25 95//25 32//30
f 95//25 96//27 32//30
f 100//26 101//26 102//26
f 100//26 102//26 98//26
f 102//26 32//30 98//26
f 99//31 23//15 64//15
f 54//26 90//28 20//28
f 20//28 90//28 42//28
f 57//15 56//15 55//15
f 58//15 56//15 57//15
f 70//32 36//32 40//32
f 70//32 40//32 71//32
f 56//28 103//28 54//26
f 104//15 64//15 105//15
f 30//15 64//15 104//15
f 74//33 106//1 64//1
f 50//16 57//16 4//16
f 68//34 35//34 36//34
f 68//34 36//34 70//34
f 107//5 108//5 109//5
f 57//35 55//35 27//35
f 66//36 37//36 35//36
f 66//36 35//36 68//36
f 101//5 100//5 25//5
f 4//4 110//37 74//33
f 4//4 74//33 3//3
f 67//38 38//38 37//38
f 67//38 37//38 66//38
f 55//28 109//28 111//28
f 111//39 27//39 55//39
f 19//40 96//40 20//40
f 110//37 106//1 74//33
f 112//16 110//16 113//16
f 108//28 111//28 109//28
f 67//41 69//41 39//41
f 67//41 39//41 38//41
f 109//16 55//16 95//16
f 55//16 54//16 95//16
f 69//42 63//42 53//42
f 69//42 53//42 39//42
f 63//43 65//43 53//43
f 33//5 32//5 24//5
f 114//15 64//15 23//15
f 115//15 64//15 114//15
f 116//15 64//15 115//15
f 117//15 64//15 116//15
f 118//15 64//15 117//15
f 119//15 64//15 118//15
f 120//15 64//15 119//15
f 121//15 64//15 120//15
f 122//15 64//15 121//15
f 123//15 64//15 122//15
f 124//15 64//15 123//15
f 125//15 64//15 126//15
f 126//15 64//15 124//15
f 22//15 23//15 99//31
f 25//28 113//28 27//28
f 113//28 57//28 27//28
f 31//44 30//45 104//44
f 31//44 104//44 49//44
f 65//43 45//43 53//43
f 24//21 108//21 33//21
f 109//5 95//5 107//5
f 34//5 107//5 95//5
f 50//21 21//21 58//21
f 104//46 105//46 51//46
f 104//46 51//46 49//46
f 110//16 4//16 57//16
f 110//16 57//16 113//16
f 65//47 87//47 43//47
f 65//47 43//47 45//47
f 79//5 83//5 1//5
f 83//5 40//5 1//5
f 96//15 106//15 98//15
f 101//8 25//9 102//8
f 24//8 102//8 25//9
f 105//48 125//48 52//48
f 105//48 52//48 51//48
f 87//49 86//49 44//49
f 87//49 44//49 43//49
f 77//5 79//5 1//5
f 17//50 16//50 127//51
f 99//52 127//51 16//50
f 100//5 128//5 113//5
f 113//5 25//5 100//5
f 94//5 42//5 92//5
f 129//53 52//53 125//53
f 130//40 96//40 19//40
f 99//31 64//15 127//54
f 110//15 98//15 106//15
f 112//16 113//16 128//16
f 86//55 84//55 46//55
f 86//55 46//55 44//55
f 3//5 77//5 1//5
f 78//5 77//5 3//5
f 126//53 129//53 125//53
f 128//21 100//21 98//21
f 128//21 98//21 112//21
f 17//6 127//6 19//6
f 19//6 127//6 130//6
f 48//5 31//5 1//5
f 84//56 85//56 47//56
f 84//56 47//56 46//56
f 94//5 41//5 42//5
f 106//15 96//15 130//15
f 124//57 131//57 129//57
f 124//57 129//57 126//57
f 88//1 61//1 62//1
f 88//1 62//1 97//1
f 85//58 132//58 48//58
f 85//58 48//58 47//58
f 131//5 5//5 1//5
f 129//5 131//5 1//5
f 52//5 129//5 1//5
f 24//5 32//5 102//5
f 41//59 94//59 103//59
f 93//59 103//59 94//59
f 112//15 98//15 110//15
f 123//60 5//60 131//60
f 123//60 131//60 124//60
f 64//6 106//6 127//6
f 130//6 127//6 106//6
f 90//15 103//15 93//15
f 132//61 29//61 28//61
f 132//61 28//61 48//61
f 108//21 107//21 33//21
f 21//28 103//28 56//28
f 41//28 103//28 21//28
f 122//62 6//62 5//62
f 122//62 5//62 123//62
f 90//28 54//26 103//28
f 33//12 107//12 34//12
f 111//15 26//15 27//15
f 63//15 69//15 64//15
f 105//15 64//15 125//15
f 132//15 64//15 30//15
f 29//15 132//15 30//15
f 132//15 85//15 64//15
f 65//15 64//15 87//15
f 26//21 108//21 24//21
f 111//21 108//21 26//21
f 121//63 7//63 6//63
f 121//63 6//63 122//63
f 81//15 62//15 60//15
f 120//64 8//64 7//64
f 120//64 7//64 121//64
f 119//65 9//65 8//65
f 119//65 8//65 120//65
f 118//66 10//66 9//66
f 118//66 9//66 119//66
f 117//67 11//67 10//67
f 117//67 10//67 118//67
f 116//68 12//68 11//68
f 116//68 11//68 117//68
f 115//69 13//69 12//69
f 115//69 12//69 116//69
f 114//70 14//70 13//70
f 114//70 13//70 115//70
f 23//71 15//71 14//71
f 23//71 14//71 114//71
