# Blender v2.79 (sub 0) OBJ File: ''
# www.blender.org
o group_0_undefined.023
v 0.700201 1.200000 2.029315
v 0.700201 1.000000 2.029315
v 1.699901 1.000000 2.029315
v 1.699901 1.200000 2.029315
v -0.299800 1.500000 2.029315
v -0.299800 -0.000000 2.029315
v 0.700001 -0.000000 2.029315
v 0.700001 1.500000 2.029315
v 0.939901 1.110300 1.269115
v 0.939901 1.110300 1.789615
v 0.939901 1.000000 1.789615
v 0.939901 1.000000 1.269115
v 1.460501 1.110300 1.789615
v 1.460501 1.110300 1.269115
v 1.460501 1.000000 1.269115
v 1.460501 1.000000 1.789615
v 0.700201 1.200000 1.029315
v 1.699901 1.200000 1.029315
v 0.700001 1.954240 1.957355
v -0.299799 2.000300 1.950065
v -0.299799 1.954240 1.957355
v 1.699901 1.000000 1.029315
v 0.700001 3.492080 0.079285
v -0.299999 3.492081 0.079285
v -0.299999 3.500001 0.129315
v 0.700001 3.500001 0.129315
v 0.700001 -0.000000 1.029315
v 0.700001 0.500000 1.029315
v 0.700001 1.500000 2.013485
v 0.700001 3.087801 -1.779686
v 0.700001 3.309000 -1.558486
v 0.700001 1.500000 -0.970685
v -0.299999 3.451101 0.438315
v 0.700001 3.451101 0.438315
v 0.700201 1.000000 1.029315
v -0.300000 1.691000 -1.558486
v 0.700001 1.691000 -1.558486
v 0.700001 1.548900 -1.279685
v -0.300000 1.548900 -1.279685
v 0.700001 1.549970 2.021395
v 0.700001 3.402101 0.647315
v 0.700001 1.600000 2.029315
v -0.300000 1.912200 -1.779686
v 0.700001 1.912200 -1.779686
v 0.700001 0.500000 0.029315
v 0.700001 1.500300 2.013535
v -0.300000 2.191000 -1.921786
v 0.700001 2.191000 -1.921786
v -0.299999 3.428041 0.483555
v 0.700001 3.428041 0.483555
v -0.299800 1.549970 2.021395
v -0.299800 1.500300 2.029265
v 0.700001 1.500300 2.029265
v 0.700001 3.499951 0.029615
v -0.299999 3.499951 0.029615
v -0.300000 2.500000 -1.970686
v 0.700001 2.500000 -1.970686
v 0.700001 3.484221 0.029615
v 0.700001 2.809000 -1.921786
v -0.299999 2.809001 -1.921786
v -0.299999 3.402101 0.647315
v -0.299999 3.118001 1.204915
v -0.299999 2.000300 0.329115
v -0.299999 2.675601 1.647315
v -0.299999 2.118001 1.931415
v -0.299999 2.000300 1.950065
v 0.700001 2.118000 1.931415
v 0.700001 1.909000 1.980415
v -0.299999 3.087801 -1.779686
v -0.299800 -0.000000 1.029315
v 0.700001 0.548900 -0.279685
v 0.700001 3.118001 1.204915
v -0.300000 0.912200 -0.779685
v -0.300000 1.191000 -0.921785
v -0.300000 0.691000 -0.558485
v -0.300000 0.548900 -0.279685
v 0.700001 2.675601 1.647315
v -0.300000 0.500000 0.029315
v 0.700001 3.484171 0.029315
v -0.299999 3.484171 0.029315
v -0.299999 3.484221 0.029615
v 0.700001 0.691000 -0.558485
v 0.700001 1.191000 -0.921785
v -0.299799 1.909000 1.980415
v 0.700001 0.912200 -0.779685
v -0.299800 0.500000 0.329115
v -0.299800 0.500000 1.029315
v -0.299800 1.600000 2.029315
v -0.300000 1.500000 -0.970685
v -0.299800 1.500300 2.013535
v -0.299800 1.500000 2.013485
v -0.299800 2.000300 0.329115
v -0.300000 0.500000 0.329115
v -0.299999 3.309001 -1.558486
v -0.299999 3.451101 -1.279685
v -0.299999 3.500001 -0.970685
v -0.299999 3.500001 0.029315
v 0.700001 3.500001 0.029315
v 0.700001 3.500001 -0.970685
v 0.700001 3.451101 -1.279685
vn 0.0000 0.0000 1.0000
vn 1.0000 0.0000 0.0000
vn -1.0000 0.0000 0.0000
vn 0.0000 1.0000 0.0000
vn 0.0000 -1.0000 0.0000
vn 0.0000 0.1563 0.9877
vn 0.0000 0.0000 -1.0000
vn 0.0000 0.9877 -0.1564
vn 0.0000 0.9877 0.1563
vn -0.0000 -0.8909 -0.4541
vn 0.0000 -0.7071 -0.7071
vn -0.0000 -0.4541 -0.8909
vn 0.0000 0.8909 0.4541
vn 0.0000 0.1565 0.9877
vn 0.0000 0.9877 0.1565
vn 0.0000 -0.1563 -0.9877
vn 0.0000 0.1563 -0.9877
vn 0.0000 0.4541 -0.8909
vn 0.0000 0.8910 0.4540
vn 0.0000 0.7071 0.7071
vn -0.0000 -0.9877 -0.1563
vn 0.0000 0.9866 -0.1631
vn 0.0000 0.9861 -0.1662
vn 0.0000 0.4540 0.8910
vn 1.0000 0.0002 0.0000
vn 0.0000 0.4541 0.8909
vn 0.0000 -0.1646 0.9864
vn -0.0000 -0.1647 0.9863
vn 0.0000 -0.1564 0.9877
vn 0.0000 0.7071 -0.7071
vn 0.0000 0.8909 -0.4541
vn 0.0000 0.9877 -0.1563
s off
f 1//1 2//1 3//1
f 1//1 3//1 4//1
f 5//1 6//1 7//1
f 5//1 7//1 8//1
f 9//2 10//2 11//2
f 9//2 11//2 12//2
f 13//3 14//3 15//3
f 13//3 15//3 16//3
f 17//4 1//4 4//4
f 17//4 4//4 18//4
f 10//5 9//5 14//5
f 10//5 14//5 13//5
f 2//5 12//5 11//5
f 19//6 20//6 21//6
f 22//5 3//5 15//5
f 16//5 15//5 3//5
f 11//7 10//7 13//7
f 11//7 13//7 16//7
f 4//2 3//2 22//2
f 15//1 14//1 9//1
f 15//1 9//1 12//1
f 23//8 24//8 25//8
f 23//8 25//8 26//8
f 16//5 3//5 11//5
f 3//5 2//5 11//5
f 4//2 22//2 18//2
f 27//2 28//2 7//2
f 28//2 29//2 7//2
f 30//2 31//2 32//2
f 25//9 33//9 34//9
f 25//9 34//9 26//9
f 22//5 15//5 12//5
f 2//5 35//5 12//5
f 22//5 12//5 35//5
f 8//2 7//2 29//2
f 36//10 37//10 38//10
f 36//10 38//10 39//10
f 40//2 41//2 42//2
f 43//11 44//11 37//11
f 43//11 37//11 36//11
f 29//2 45//2 46//2
f 47//12 48//12 44//12
f 47//12 44//12 43//12
f 33//13 49//13 50//13
f 33//13 50//13 34//13
f 40//14 51//14 52//14
f 40//14 52//14 53//14
f 54//15 55//15 24//15
f 54//15 24//15 23//15
f 56//16 57//16 48//16
f 56//16 48//16 47//16
f 54//2 23//2 58//2
f 23//2 26//2 40//2
f 34//2 40//2 26//2
f 41//2 40//2 50//2
f 30//2 32//2 59//2
f 57//2 59//2 32//2
f 57//2 32//2 38//2
f 57//2 38//2 37//2
f 57//2 37//2 44//2
f 57//2 44//2 48//2
f 60//17 59//17 57//17
f 60//17 57//17 56//17
f 50//15 49//15 61//15
f 50//15 61//15 41//15
f 62//3 63//3 64//3
f 65//3 64//3 63//3
f 66//14 20//14 65//14
f 67//14 65//14 20//14
f 67//14 20//14 19//14
f 53//2 46//2 40//2
f 68//2 42//2 19//2
f 69//18 30//18 59//18
f 69//18 59//18 60//18
f 6//5 70//5 27//5
f 6//5 27//5 7//5
f 45//2 71//2 40//2
f 40//2 46//2 45//2
f 45//2 29//2 28//2
f 1//3 17//3 35//3
f 41//19 62//19 72//19
f 61//19 62//19 41//19
f 73//3 63//3 74//3
f 75//3 63//3 73//3
f 76//3 63//3 75//3
f 19//2 41//2 67//2
f 77//2 67//2 72//2
f 19//2 42//2 41//2
f 72//2 67//2 41//2
f 62//20 64//20 77//20
f 62//20 77//20 72//20
f 1//3 35//3 2//3
f 76//21 71//21 45//21
f 76//21 45//21 78//21
f 79//22 80//22 81//22
f 79//23 81//23 58//23
f 64//24 65//24 67//24
f 64//24 67//24 77//24
f 75//10 82//10 71//10
f 75//10 71//10 76//10
f 58//2 23//2 32//2
f 79//25 58//25 32//25
f 32//2 40//2 83//2
f 19//26 21//26 84//26
f 19//26 84//26 68//26
f 54//7 58//7 81//7
f 54//7 81//7 55//7
f 73//11 85//11 82//11
f 73//11 82//11 75//11
f 45//5 28//5 86//5
f 87//5 86//5 28//5
f 84//6 88//6 68//6
f 74//12 83//12 85//12
f 74//12 85//12 73//12
f 89//16 32//16 83//16
f 89//16 83//16 74//16
f 46//27 90//27 91//27
f 46//28 91//28 29//28
f 92//3 86//3 87//3
f 90//3 92//3 91//3
f 88//6 42//6 68//6
f 93//5 78//5 86//5
f 78//5 45//5 86//5
f 94//3 89//3 95//3
f 69//3 89//3 94//3
f 63//3 80//3 89//3
f 96//3 80//3 97//3
f 42//29 88//29 51//29
f 42//29 51//29 40//29
f 63//5 92//5 66//5
f 25//3 63//3 33//3
f 24//3 63//3 25//3
f 21//3 92//3 84//3
f 86//1 92//1 63//1
f 86//1 63//1 93//1
f 60//3 56//3 69//3
f 69//3 56//3 47//3
f 69//3 47//3 43//3
f 69//3 43//3 36//3
f 69//3 36//3 39//3
f 69//3 39//3 89//3
f 78//3 63//3 76//3
f 89//3 74//3 63//3
f 97//4 98//4 99//4
f 97//4 99//4 96//4
f 79//1 98//1 97//1
f 79//1 97//1 80//1
f 52//5 90//5 46//5
f 52//5 46//5 53//5
f 94//30 31//30 30//30
f 94//30 30//30 69//30
f 94//31 95//31 100//31
f 94//31 100//31 31//31
f 95//32 96//32 99//32
f 95//32 99//32 100//32
f 49//3 63//3 61//3
f 81//3 63//3 24//3
f 55//3 81//3 24//3
f 80//3 63//3 81//3
f 96//3 89//3 80//3
f 49//3 33//3 63//3
f 39//21 38//21 32//21
f 39//21 32//21 89//21
f 82//2 40//2 71//2
f 85//2 40//2 82//2
f 83//2 40//2 85//2
f 87//3 91//3 92//3
f 90//3 51//3 92//3
f 52//3 51//3 90//3
f 88//3 84//3 92//3
f 51//3 88//3 92//3
f 20//3 92//3 21//3
f 66//3 65//3 63//3
f 99//2 32//2 100//2
f 31//2 100//2 32//2
f 98//2 79//2 99//2
f 79//2 32//2 99//2
f 66//5 92//5 20//5
f 62//3 61//3 63//3
f 95//3 89//3 96//3
f 93//3 63//3 78//3
f 91//4 5//4 8//4
f 91//4 8//4 29//4
f 70//3 6//3 87//3
f 6//3 91//3 87//3
f 5//3 91//3 6//3
f 17//7 18//7 22//7
f 17//7 22//7 35//7
f 28//7 27//7 70//7
f 28//7 70//7 87//7
f 50//2 40//2 34//2
f 40//2 32//2 23//2
