# Blender v2.79 (sub 0) OBJ File: ''
# www.blender.org
o group_0_undefined.022
v -1.000000 1.200000 2.000000
v -1.000000 1.000000 2.000000
v -0.000000 1.000000 2.000000
v -0.000000 1.200000 2.000000
v -0.239700 1.000000 1.760301
v -0.239700 1.000000 1.239800
v -0.760300 1.000000 1.760301
v 1.000000 1.500000 2.000000
v 0.000000 1.500000 2.000000
v 1.000000 -0.000001 2.000000
v -0.000000 0.000000 2.000000
v 0.000000 1.954240 1.928040
v 0.000000 2.118000 1.902100
v -0.000000 1.200000 1.000000
v 0.000000 1.909000 1.951101
v 0.000000 1.600000 2.000000
v 1.000000 1.600000 2.000000
v -0.000000 1.000000 1.000000
v -0.760300 1.000000 1.239800
v -1.000000 1.000000 1.000000
v 1.000000 1.909000 1.951101
v 1.000000 1.954240 1.928040
v 0.000000 1.549970 1.992080
v 1.000000 1.549970 1.992080
v 1.000000 3.499950 0.000300
v 0.000000 3.499950 0.000300
v 0.000000 3.492080 0.049970
v 1.000000 3.492080 0.049970
v -0.000000 0.912200 -0.809000
v 1.000000 0.912200 -0.809000
v 1.000000 0.691000 -0.587800
v -0.000000 0.691000 -0.587800
v 1.000000 3.428040 0.454240
v 0.000000 3.428040 0.454240
v 0.000000 3.402100 0.618000
v 1.000000 3.402100 0.618000
v -0.000000 1.191000 -0.951100
v 1.000000 1.191000 -0.951100
v 1.000000 3.484170 -0.000000
v 0.000000 3.484171 -0.000000
v 0.000000 3.484221 0.000300
v 1.000000 3.484220 0.000300
v 0.000000 1.500300 1.999951
v 0.000000 1.500300 1.984221
v 0.000000 3.118000 1.175600
v 0.000000 2.675600 1.618000
v 1.000000 2.118000 1.902100
v -0.000000 2.191000 -1.951100
v 1.000000 2.191000 -1.951100
v 1.000000 1.912200 -1.809000
v -0.000000 1.912200 -1.809000
v 1.000000 1.500000 -1.000000
v 1.000000 3.500000 0.100000
v 1.000000 3.500000 -0.000000
v 0.000000 3.500000 -0.000000
v 1.000000 2.675600 1.618000
v 1.000000 3.118000 1.175600
v 1.000000 1.500300 1.999951
v 1.000000 1.500300 1.984221
v -1.000000 1.200000 1.000000
v 0.000000 2.500000 -2.000000
v 1.000000 2.500000 -2.000000
v 0.000000 1.500000 1.984171
v 0.000000 2.809000 -1.951100
v 1.000000 2.809000 -1.951100
v -0.760300 1.110300 1.239800
v -0.760300 1.110300 1.760301
v 1.000000 1.500000 1.984171
v 1.000000 0.500000 1.000000
v 1.000000 0.500000 -0.000000
v 1.000000 0.548900 -0.309000
v 1.000000 -0.000001 1.000000
v 0.000000 3.087800 -1.809000
v 1.000000 3.087800 -1.809000
v -0.000000 0.500000 1.000000
v -0.000000 0.500000 0.000000
v -0.239700 1.110300 1.760301
v -0.239700 1.110300 1.239800
v -0.000000 0.000000 1.000000
v 1.000000 3.309000 -1.587800
v 1.000000 3.500000 -1.000000
v 1.000000 3.451100 -1.309000
v -0.000000 1.500000 -1.000000
v 0.000000 3.500000 0.100000
v 0.000000 3.451101 0.409000
v 0.000000 3.309000 -1.587800
v 0.000000 3.451101 -1.309000
v 0.000000 3.500000 -1.000000
v 1.000000 1.548900 -1.309000
v 1.000000 1.691000 -1.587800
v 1.000000 3.451100 0.409000
v -0.000000 0.548900 -0.309000
v -0.000000 1.691000 -1.587800
v -0.000000 1.548900 -1.309000
vn 0.0000 0.0000 1.0000
vn -0.0000 -1.0000 -0.0000
vn -1.0000 0.0000 0.0000
vn 0.0000 0.1563 0.9877
vn 1.0000 0.0000 0.0000
vn -0.0000 -0.1564 0.9877
vn 0.0000 0.9877 0.1565
vn -0.0000 -0.7071 -0.7071
vn -0.0000 -0.4541 -0.8909
vn 0.0000 0.9864 -0.1646
vn -0.0000 0.9864 -0.1641
vn -0.0000 0.0000 -1.0000
vn 0.0000 0.1565 0.9877
vn 0.0000 -0.1563 -0.9877
vn 0.0000 0.1563 -0.9877
vn 0.0000 0.4541 -0.8909
vn 0.0000 -0.1647 0.9863
vn 0.0000 -0.1635 0.9865
vn 0.0000 -0.1638 0.9865
vn 0.0000 -0.1648 0.9863
vn 0.0000 1.0000 -0.0000
vn 0.0000 0.7071 -0.7071
vn 0.0000 0.8910 0.4540
vn 0.0000 0.7071 0.7071
vn 0.0000 0.4540 0.8910
vn 0.0000 0.4541 0.8909
vn -0.0000 -0.9877 -0.1563
vn -0.0000 -0.8909 -0.4541
vn 0.0000 0.8909 -0.4541
vn 0.0000 0.9877 -0.1563
vn -0.0000 0.9877 -0.1564
vn 0.0000 0.9877 0.1563
vn 0.0000 0.8909 0.4541
s 1
f 1//1 2//1 3//1
f 1//1 3//1 4//1
f 5//2 6//2 3//2
f 2//2 7//2 5//2
f 2//2 5//2 3//2
f 4//1 3//1 8//1
f 9//1 4//1 8//1
f 10//1 8//1 3//1
f 11//1 10//1 3//1
f 12//3 13//3 14//3
f 12//3 14//3 15//3
f 15//4 16//4 17//4
f 18//2 3//2 6//2
f 18//2 6//2 19//2
f 18//2 19//2 20//2
f 21//5 17//5 22//5
f 17//6 16//6 23//6
f 17//6 23//6 24//6
f 25//7 26//7 27//7
f 25//7 27//7 28//7
f 29//8 30//8 31//8
f 29//8 31//8 32//8
f 33//7 34//7 35//7
f 33//7 35//7 36//7
f 37//9 38//9 30//9
f 37//9 30//9 29//9
f 39//10 40//10 41//10
f 39//10 41//10 42//11
f 43//3 23//3 44//3
f 16//3 15//3 14//3
f 45//3 14//3 46//3
f 13//3 46//3 14//3
f 23//3 16//3 14//3
f 35//3 14//3 45//3
f 25//12 42//12 41//12
f 25//12 41//12 26//12
f 12//13 22//13 13//13
f 47//13 13//13 22//13
f 48//9 49//9 50//9
f 48//9 50//9 51//9
f 24//5 52//5 28//5
f 25//5 28//5 42//5
f 28//5 53//5 24//5
f 24//5 33//5 36//5
f 36//5 17//5 24//5
f 39//1 54//1 55//1
f 39//1 55//1 40//1
f 56//5 47//5 57//5
f 36//5 57//5 47//5
f 36//5 47//5 22//5
f 58//5 59//5 24//5
f 22//5 17//5 36//5
f 2//3 1//3 20//3
f 60//3 20//3 1//3
f 61//14 62//14 49//14
f 61//14 49//14 48//14
f 9//3 63//3 4//3
f 14//3 4//3 63//3
f 64//15 65//15 62//15
f 64//15 62//15 61//15
f 66//5 67//5 7//5
f 66//5 7//5 19//5
f 24//13 23//13 43//13
f 24//13 43//13 58//13
f 68//5 52//5 59//5
f 68//5 69//5 70//5
f 70//5 71//5 68//5
f 8//5 10//5 68//5
f 69//5 68//5 10//5
f 72//5 69//5 10//5
f 73//16 74//16 65//16
f 73//16 65//16 64//16
f 59//17 44//18 63//19
f 59//17 63//19 68//20
f 75//2 76//2 70//2
f 75//2 70//2 69//2
f 14//21 1//21 4//21
f 77//3 78//3 6//3
f 77//3 6//3 5//3
f 31//5 68//5 71//5
f 30//5 68//5 31//5
f 38//5 68//5 30//5
f 52//5 68//5 38//5
f 60//21 1//21 14//21
f 3//3 75//3 11//3
f 18//3 75//3 3//3
f 79//3 11//3 75//3
f 80//22 74//22 73//22
f 81//5 39//5 52//5
f 54//5 39//5 81//5
f 39//5 42//5 52//5
f 82//5 81//5 52//5
f 7//2 2//2 19//2
f 20//2 19//2 2//2
f 83//14 52//14 38//14
f 83//14 38//14 37//14
f 84//3 14//3 85//3
f 27//3 14//3 84//3
f 79//2 72//2 10//2
f 79//2 10//2 11//2
f 44//2 59//2 58//2
f 44//2 58//2 43//2
f 67//2 66//2 78//2
f 67//2 78//2 77//2
f 9//21 8//21 68//21
f 9//21 68//21 63//21
f 36//23 35//23 45//23
f 36//23 45//23 57//23
f 79//12 75//12 69//12
f 79//12 69//12 72//12
f 7//12 67//12 77//12
f 7//12 77//12 5//12
f 86//3 83//3 87//3
f 73//3 83//3 86//3
f 88//3 40//3 55//3
f 45//24 46//24 56//24
f 45//24 56//24 57//24
f 34//3 85//3 14//3
f 74//5 80//5 52//5
f 80//5 82//5 52//5
f 59//5 52//5 24//5
f 65//5 74//5 52//5
f 89//5 90//5 52//5
f 90//5 50//5 52//5
f 50//5 49//5 52//5
f 49//5 62//5 52//5
f 62//5 65//5 52//5
f 60//12 14//12 18//12
f 60//12 18//12 20//12
f 46//25 13//25 47//25
f 46//25 47//25 56//25
f 33//5 24//5 91//5
f 91//5 24//5 53//5
f 6//1 78//1 66//1
f 6//1 66//1 19//1
f 42//5 28//5 52//5
f 41//3 14//3 27//3
f 26//3 41//3 27//3
f 40//3 14//3 41//3
f 88//3 83//3 40//3
f 22//26 12//26 15//26
f 22//26 15//26 21//26
f 83//3 37//3 29//3
f 83//3 29//3 32//3
f 83//3 32//3 92//3
f 92//27 71//27 70//27
f 92//27 70//27 76//27
f 64//3 61//3 73//3
f 73//3 61//3 48//3
f 73//3 48//3 51//3
f 73//3 51//3 93//3
f 73//3 93//3 94//3
f 73//3 94//3 83//3
f 83//3 92//3 76//3
f 76//3 18//3 83//3
f 87//3 83//3 88//3
f 17//4 21//4 15//4
f 32//28 31//28 71//28
f 32//28 71//28 92//28
f 55//21 54//21 81//21
f 55//21 81//21 88//21
f 86//22 80//22 73//22
f 75//3 18//3 76//3
f 14//3 83//3 18//3
f 14//3 40//3 83//3
f 35//3 34//3 14//3
f 63//3 44//3 14//3
f 44//3 23//3 14//3
f 86//29 87//29 82//29
f 86//29 82//29 80//29
f 87//30 88//30 81//30
f 87//30 81//30 82//30
f 28//31 27//31 84//31
f 28//31 84//31 53//31
f 94//27 89//27 52//27
f 94//27 52//27 83//27
f 93//28 90//28 89//28
f 93//28 89//28 94//28
f 84//32 85//32 91//32
f 84//32 91//32 53//32
f 51//8 50//8 90//8
f 51//8 90//8 93//8
f 85//33 34//33 33//33
f 85//33 33//33 91//33
