# Blender v2.79 (sub 0) OBJ File: ''
# www.blender.org
o group_0_undefined.006
v 0.340900 0.260000 -0.100000
v 0.340900 0.260000 0.010000
v 0.740000 0.260000 0.010000
v 0.740000 0.260000 -0.100000
v 1.260200 -0.260200 -0.100000
v -1.260300 -0.260200 -0.100000
v -1.260300 -0.260200 0.010300
v -0.340900 0.260000 -0.100000
v -0.340900 -0.260000 -0.100000
v -0.740000 -0.260000 -0.100000
v -0.740000 0.260000 -0.100000
v 1.260200 0.260300 0.010300
v 1.260200 -0.260200 0.010300
v 1.500000 -0.500000 -0.100000
v 1.500000 0.500000 0.100000
v 1.500000 -0.500000 0.100000
v 0.740000 -0.260000 -0.100000
v 0.340900 -0.260000 -0.100000
v -0.740000 -0.260000 0.010000
v -0.740000 0.260000 0.010000
v -1.500000 0.500000 0.100000
v -1.500000 -0.500000 0.100000
v 1.500000 0.500000 -0.100000
v -1.260300 0.260300 -0.100000
v -1.500000 0.500000 -0.100000
v 1.260200 0.260300 -0.100000
v -0.340900 -0.260000 0.010000
v 0.740000 -0.260000 0.010000
v 0.340900 -0.260000 0.010000
v -1.500000 -0.500000 -0.100000
v -1.260300 0.260300 0.010300
v -0.340900 0.260000 0.010000
vn 0.0000 1.0000 0.0000
vn -0.0000 -0.0000 -1.0000
vn -1.0000 0.0000 0.0000
vn 1.0000 -0.0000 0.0000
vn 0.0000 0.0000 1.0000
vn -0.0000 -1.0000 0.0000
s off
f 1//1 2//1 3//1
f 1//1 3//1 4//1
f 5//1 6//1 7//1
f 8//2 9//2 10//2
f 8//2 10//2 11//2
f 12//3 5//3 13//3
f 14//4 15//4 16//4
f 4//2 17//2 18//2
f 4//2 18//2 1//2
f 13//1 5//1 7//1
f 11//3 10//3 19//3
f 11//3 19//3 20//3
f 21//5 22//5 16//5
f 21//5 16//5 15//5
f 14//2 5//2 23//2
f 24//2 25//2 26//2
f 23//2 26//2 25//2
f 9//6 27//6 19//6
f 9//6 19//6 10//6
f 17//6 28//6 29//6
f 17//6 29//6 18//6
f 1//3 18//3 29//3
f 1//3 29//3 2//3
f 23//4 15//4 14//4
f 24//2 6//2 25//2
f 30//3 22//3 25//3
f 21//3 25//3 22//3
f 7//2 31//2 12//2
f 7//2 12//2 13//2
f 15//1 25//1 21//1
f 20//5 19//5 27//5
f 20//5 27//5 32//5
f 3//4 28//4 17//4
f 3//4 17//4 4//4
f 14//2 30//2 5//2
f 6//2 5//2 30//2
f 25//2 6//2 30//2
f 24//4 7//4 6//4
f 22//6 30//6 14//6
f 26//2 23//2 5//2
f 32//4 27//4 9//4
f 32//4 9//4 8//4
f 2//5 29//5 28//5
f 2//5 28//5 3//5
f 7//4 24//4 31//4
f 22//6 14//6 16//6
f 15//1 23//1 25//1
f 26//3 5//3 12//3
f 31//6 24//6 26//6
f 31//6 26//6 12//6
f 11//1 20//1 32//1
f 11//1 32//1 8//1
