# Blender v2.79 (sub 0) OBJ File: ''
# www.blender.org
o group_0_undefined.011
v 0.499900 -0.150300 0.484370
v 0.500000 -0.150300 0.484370
v 0.499900 -0.166130 -0.484190
v 0.500000 -0.166160 -0.485940
v 0.499900 0.290900 0.235700
v 0.499900 0.265600 0.277800
v 0.499900 0.236400 0.317200
v 0.499900 0.203500 0.353600
v 0.499900 0.167100 0.386500
v 0.499900 0.127700 0.415700
v 0.499900 0.085600 0.441000
v 0.499900 0.041200 0.461900
v 0.499900 -0.005000 0.478500
v 0.499900 -0.052600 0.490400
v 0.499900 -0.101100 0.497600
v 0.499900 -0.150100 0.486000
v 0.499900 -0.150300 0.485800
v 0.499900 -0.150100 0.500000
v 0.500000 -0.150300 0.496600
v 0.500000 -0.334000 0.500000
v 0.500000 -0.349900 -0.472570
v 0.399900 -0.150100 0.500000
v 0.399900 -0.101100 0.497600
v -0.260400 -0.239800 -0.260200
v -0.260300 -0.245070 -0.260200
v 0.260100 -0.239800 -0.260200
v 0.260100 -0.245070 -0.260200
v 0.499900 0.349900 -0.007000
v 0.399900 0.349900 -0.007000
v 0.399900 0.349570 -0.006680
v 0.499900 0.349570 -0.006680
v -0.260400 -0.337920 0.260300
v -0.260400 -0.239800 0.260300
v -0.260300 -0.337920 0.260300
v 0.499900 0.127700 -0.415700
v 0.499900 0.085600 -0.441000
v 0.499900 0.167100 -0.386500
v 0.499900 0.203500 -0.353600
v 0.499900 0.236400 -0.317200
v 0.499900 0.041200 -0.461900
v 0.499900 -0.347170 -0.305690
v 0.499900 -0.337250 0.301470
v 0.499900 0.311800 -0.191300
v 0.499900 0.328400 -0.145100
v 0.499900 0.290900 -0.235700
v 0.499900 0.340300 -0.097500
v 0.499900 0.347500 -0.049000
v 0.499900 0.349540 -0.007360
v 0.499900 0.349900 -0.000000
v 0.500000 -0.349900 -0.482510
v 0.499900 0.347500 0.049000
v 0.499900 0.340300 0.097500
v 0.499900 0.265600 -0.277800
v 0.260200 -0.337850 0.264400
v 0.260200 -0.236500 0.262500
v 0.260200 -0.349900 -0.472570
v 0.260200 -0.248740 -0.484400
v 0.260200 -0.349900 -0.482510
v -0.260000 -0.349900 -0.482510
v -0.260000 -0.349900 -0.470150
v -0.260000 -0.248940 -0.484390
v -0.260000 -0.245290 -0.260200
v 0.399900 0.265600 -0.277800
v 0.399900 -0.150300 0.484370
v 0.399900 0.290900 -0.235700
v 0.399900 0.167100 -0.386500
v 0.399900 0.203500 -0.353600
v 0.399900 0.127700 -0.415700
v 0.399900 0.236400 -0.317200
v 0.399900 0.085600 -0.441000
v 0.399900 0.041200 -0.461900
v 0.399900 -0.005000 -0.478500
v 0.399900 -0.150100 -0.500000
v 0.399900 -0.166130 -0.484190
v 0.399900 -0.101100 -0.497600
v 0.399900 -0.052600 -0.490400
v 0.499900 -0.101100 -0.497600
v 0.499900 -0.150100 -0.500000
v 0.499900 -0.052600 -0.490400
v 0.260000 -0.346420 -0.260200
v -0.260000 -0.346420 -0.260200
v 0.260000 -0.349900 -0.470150
v 0.499900 -0.005000 -0.478500
v 0.399900 0.340300 -0.097500
v 0.399900 0.347500 -0.049000
v 0.399900 0.328400 -0.145100
v 0.399900 0.311800 -0.191300
v 0.260000 -0.248940 -0.484390
v 0.260000 -0.349900 -0.482510
v 0.399900 -0.337250 0.301470
v 0.399900 -0.349900 0.289000
v 0.499900 -0.349900 0.289000
v 0.399900 -0.349900 -0.303000
v 0.499900 -0.349900 -0.303000
v -0.260300 -0.337850 0.264400
v -0.500000 -0.334000 0.500000
v 0.260000 -0.245290 -0.260200
v -0.500000 -0.349900 -0.472570
v 0.399900 -0.150100 0.486000
v -0.260300 -0.349900 -0.472570
v -0.260300 -0.346430 -0.260200
v -0.260400 -0.346430 -0.260200
v 0.399900 -0.347170 -0.305690
v 0.399900 0.349900 -0.000000
v 0.399900 0.347500 0.049000
v -0.500000 -0.150300 0.484370
v -0.260300 -0.239800 0.260300
v -0.260300 -0.239800 0.061160
v -0.260300 -0.236500 0.262500
v -0.500000 -0.166160 -0.485940
v 0.260100 -0.239800 0.061160
v -0.500000 -0.349900 -0.482510
v -0.260300 -0.248740 -0.484400
v 0.399900 -0.052600 0.490400
v 0.399900 -0.005000 0.478500
v 0.399900 0.041200 0.461900
v 0.399900 0.085600 0.441000
v 0.399900 0.127700 0.415700
v 0.399900 0.167100 0.386500
v 0.399900 0.203500 0.353600
v 0.399900 0.236400 0.317200
v 0.399900 0.265600 0.277800
v 0.399900 0.290900 0.235700
v 0.399900 0.311800 0.191300
v 0.399900 0.340300 0.097500
v 0.399900 0.328400 0.145100
v 0.399900 -0.150300 0.485800
v -0.260300 -0.349900 -0.482510
v 0.499900 0.328400 0.145100
v -0.500000 -0.150300 0.496600
v 0.499900 0.311800 0.191300
v 0.399900 0.349540 -0.007360
vn 0.0000 0.9999 -0.0163
vn 0.0139 0.9998 -0.0163
vn 1.0000 0.0000 -0.0000
vn 0.0000 1.0000 0.0000
vn 0.0000 0.0489 0.9988
vn 0.0000 0.0000 1.0000
vn 0.0000 0.6960 0.7180
vn 0.0000 0.6961 0.7179
vn 0.0000 0.0000 -1.0000
vn -0.0176 -0.9997 0.0163
vn 0.0634 -0.9979 0.0163
vn -1.0000 0.0000 0.0000
vn -0.0000 -0.0187 -0.9998
vn 0.0000 0.0489 -0.9988
vn 0.0000 0.1468 -0.9892
vn -0.0000 -0.9999 0.0166
vn 0.0000 0.2425 -0.9701
vn -0.0000 -1.0000 0.0000
vn 0.0000 -0.0186 -0.9998
vn 0.0000 -0.7020 0.7122
vn -0.0000 -0.7022 -0.7120
vn -0.0000 -0.9999 0.0163
vn 0.0000 0.3381 -0.9411
vn 0.0000 -0.9999 0.0171
vn 0.0007 -0.9999 0.0171
vn -0.0001 -0.9999 0.0164
vn 0.0000 -0.9999 0.0164
vn -0.0000 0.4259 -0.9048
vn 0.0000 0.5151 -0.8571
vn 0.0410 -0.9990 0.0164
vn 0.0000 0.5954 -0.8034
vn 0.0000 0.9999 -0.0171
vn 0.0000 0.6705 -0.7419
vn -0.0179 -0.9997 0.0164
vn 0.0000 0.0185 0.9998
vn 0.0000 0.7419 -0.6705
vn 0.0000 0.8034 -0.5954
vn 0.0000 0.8571 -0.5151
vn -0.0000 0.9988 -0.0493
vn 0.0000 0.9988 0.0489
vn 0.0000 0.9048 -0.4259
vn -0.0003 0.0000 1.0000
vn 0.0000 0.9892 0.1468
vn 0.0000 0.9411 -0.3381
vn 0.0000 -0.7072 0.7070
vn 0.0000 -0.7073 0.7069
vn 0.0000 0.9701 0.2425
vn -1.0000 -0.0004 0.0000
vn -0.0000 0.9701 -0.2425
vn 0.0000 0.9892 -0.1468
vn 0.0000 0.9411 0.3381
vn -0.0000 0.9988 -0.0489
vn 0.0000 -0.7019 -0.7123
vn 0.0000 0.9048 0.4259
vn -0.0000 0.7071 -0.7071
vn 0.0000 0.8571 0.5151
vn -1.0000 -0.0001 -0.0000
vn 0.0000 0.8034 0.5954
vn 0.0000 0.7419 0.6705
vn 0.0000 0.6705 0.7419
vn 0.0000 0.5954 0.8034
vn 0.0000 0.5151 0.8571
vn 0.0000 0.4259 0.9048
vn 0.0000 0.3381 0.9411
vn 0.0000 0.2425 0.9701
vn 0.0000 0.1468 0.9892
s off
f 1//1 2//1 3//1
f 4//2 3//2 2//2
f 5//3 6//3 1//3
f 6//3 7//3 1//3
f 7//3 8//3 1//3
f 8//3 9//3 1//3
f 9//3 10//3 1//3
f 10//3 11//3 1//3
f 11//3 12//3 1//3
f 12//3 13//3 1//3
f 13//3 14//3 1//3
f 14//3 15//3 1//3
f 15//3 16//3 1//3
f 17//3 1//3 16//3
f 18//3 16//3 15//3
f 2//4 1//4 17//4
f 2//4 17//4 19//4
f 19//3 20//3 2//3
f 2//3 21//3 4//3
f 22//5 18//5 15//5
f 22//5 15//5 23//5
f 24//6 25//6 26//6
f 27//6 26//6 25//6
f 28//7 29//7 30//7
f 28//8 30//8 31//8
f 32//9 33//9 34//9
f 35//3 1//3 36//3
f 37//3 1//3 35//3
f 38//3 1//3 37//3
f 39//3 1//3 38//3
f 40//3 36//3 1//3
f 21//10 20//10 41//10
f 42//11 41//11 20//11
f 43//3 44//3 1//3
f 45//3 43//3 1//3
f 44//3 46//3 1//3
f 46//3 47//3 1//3
f 47//3 48//3 1//3
f 31//3 49//3 1//3
f 50//3 4//3 21//3
f 21//3 2//3 20//3
f 28//3 31//3 48//3
f 49//3 51//3 1//3
f 51//3 52//3 1//3
f 53//3 45//3 1//3
f 39//3 53//3 1//3
f 54//12 55//12 56//12
f 57//13 50//13 58//13
f 59//12 60//12 61//12
f 61//12 60//12 62//12
f 63//12 64//12 65//12
f 66//12 64//12 67//12
f 68//12 64//12 66//12
f 69//12 67//12 64//12
f 70//12 64//12 68//12
f 71//12 64//12 70//12
f 72//12 64//12 71//12
f 73//12 74//12 75//12
f 75//12 64//12 76//12
f 76//12 64//12 72//12
f 75//14 77//14 78//14
f 75//14 78//14 73//14
f 76//15 79//15 77//15
f 76//15 77//15 75//15
f 80//16 81//16 82//16
f 60//16 82//16 81//16
f 72//17 83//17 79//17
f 72//17 79//17 76//17
f 58//18 21//18 56//18
f 74//12 64//12 75//12
f 84//12 64//12 85//12
f 86//12 64//12 84//12
f 87//12 64//12 86//12
f 61//19 88//19 89//19
f 61//19 89//19 59//19
f 90//20 91//20 92//20
f 90//20 92//20 42//20
f 93//12 91//12 90//12
f 89//18 82//18 60//18
f 89//18 60//18 59//18
f 93//18 94//18 92//18
f 93//18 92//18 91//18
f 74//21 73//21 78//21
f 74//21 78//21 3//21
f 95//22 54//22 96//22
f 20//22 96//22 54//22
f 81//6 80//6 97//6
f 81//6 97//6 62//6
f 80//3 82//3 97//3
f 97//3 82//3 88//3
f 89//3 88//3 82//3
f 71//23 40//23 83//23
f 71//23 83//23 72//23
f 96//22 98//22 32//22
f 16//18 18//18 99//18
f 22//18 99//18 18//18
f 34//24 95//24 32//24
f 95//25 96//25 32//25
f 100//22 101//22 102//22
f 100//22 102//22 98//22
f 102//22 32//22 98//22
f 99//12 23//12 64//12
f 54//26 90//26 20//26
f 20//27 90//27 42//27
f 57//12 56//12 55//12
f 58//12 56//12 57//12
f 70//28 36//28 40//28
f 70//28 40//28 71//28
f 56//22 103//22 54//22
f 104//12 64//12 105//12
f 30//12 64//12 104//12
f 74//1 106//1 64//1
f 50//13 57//13 4//13
f 68//29 35//29 36//29
f 68//29 36//29 70//29
f 107//3 108//3 109//3
f 57//30 55//30 27//30
f 66//31 37//31 35//31
f 66//31 35//31 68//31
f 101//3 100//3 25//3
f 4//32 110//32 74//32
f 4//32 74//32 3//32
f 67//33 38//33 37//33
f 67//33 37//33 66//33
f 55//27 109//27 111//27
f 111//34 27//34 55//34
f 19//35 96//35 20//35
f 110//1 106//1 74//1
f 112//13 110//13 113//13
f 108//27 111//27 109//27
f 67//36 69//36 39//36
f 67//36 39//36 38//36
f 109//13 55//13 95//13
f 55//13 54//13 95//13
f 69//37 63//37 53//37
f 69//37 53//37 39//37
f 63//38 65//38 53//38
f 33//3 32//3 24//3
f 114//12 64//12 23//12
f 115//12 64//12 114//12
f 116//12 64//12 115//12
f 117//12 64//12 116//12
f 118//12 64//12 117//12
f 119//12 64//12 118//12
f 120//12 64//12 119//12
f 121//12 64//12 120//12
f 122//12 64//12 121//12
f 123//12 64//12 122//12
f 124//12 64//12 123//12
f 125//12 64//12 126//12
f 126//12 64//12 124//12
f 22//12 23//12 99//12
f 25//27 113//27 27//27
f 113//27 57//27 27//27
f 31//39 30//39 104//39
f 31//39 104//39 49//39
f 65//38 45//38 53//38
f 24//18 108//18 33//18
f 109//3 95//3 107//3
f 34//3 107//3 95//3
f 50//18 21//18 58//18
f 104//40 105//40 51//40
f 104//40 51//40 49//40
f 110//19 4//19 57//19
f 110//19 57//19 113//19
f 65//41 87//41 43//41
f 65//41 43//41 45//41
f 79//3 83//3 1//3
f 83//3 40//3 1//3
f 96//12 106//12 98//12
f 101//6 25//6 102//6
f 24//42 102//42 25//42
f 105//43 125//43 52//43
f 105//43 52//43 51//43
f 87//44 86//44 44//44
f 87//44 44//44 43//44
f 77//3 79//3 1//3
f 17//45 16//45 127//45
f 99//46 127//46 16//46
f 100//3 128//3 113//3
f 113//3 25//3 100//3
f 94//3 42//3 92//3
f 129//47 52//47 125//47
f 130//35 96//35 19//35
f 99//48 64//48 127//48
f 110//12 98//12 106//12
f 112//13 113//13 128//13
f 86//49 84//49 46//49
f 86//49 46//49 44//49
f 3//3 77//3 1//3
f 78//3 77//3 3//3
f 126//47 129//47 125//47
f 128//18 100//18 98//18
f 128//18 98//18 112//18
f 17//4 127//4 19//4
f 19//4 127//4 130//4
f 48//3 31//3 1//3
f 84//50 85//50 47//50
f 84//50 47//50 46//50
f 94//3 41//3 42//3
f 106//12 96//12 130//12
f 124//51 131//51 129//51
f 124//51 129//51 126//51
f 88//1 61//1 62//1
f 88//1 62//1 97//1
f 85//52 132//52 48//52
f 85//52 48//52 47//52
f 131//3 5//3 1//3
f 129//3 131//3 1//3
f 52//3 129//3 1//3
f 24//3 32//3 102//3
f 41//53 94//53 103//53
f 93//53 103//53 94//53
f 112//12 98//12 110//12
f 123//54 5//54 131//54
f 123//54 131//54 124//54
f 64//4 106//4 127//4
f 130//4 127//4 106//4
f 90//12 103//12 93//12
f 132//55 29//55 28//55
f 132//55 28//55 48//55
f 108//18 107//18 33//18
f 21//27 103//27 56//27
f 41//27 103//27 21//27
f 122//56 6//56 5//56
f 122//56 5//56 123//56
f 90//22 54//22 103//22
f 33//9 107//9 34//9
f 111//12 26//12 27//12
f 63//12 69//12 64//12
f 105//12 64//12 125//12
f 132//57 64//57 30//57
f 29//12 132//12 30//12
f 132//12 85//12 64//12
f 65//12 64//12 87//12
f 26//18 108//18 24//18
f 111//18 108//18 26//18
f 121//58 7//58 6//58
f 121//58 6//58 122//58
f 81//12 62//12 60//12
f 120//59 8//59 7//59
f 120//59 7//59 121//59
f 119//60 9//60 8//60
f 119//60 8//60 120//60
f 118//61 10//61 9//61
f 118//61 9//61 119//61
f 117//62 11//62 10//62
f 117//62 10//62 118//62
f 116//63 12//63 11//63
f 116//63 11//63 117//63
f 115//64 13//64 12//64
f 115//64 12//64 116//64
f 114//65 14//65 13//65
f 114//65 13//65 115//65
f 23//66 15//66 14//66
f 23//66 14//66 114//66
