# Blender v2.79 (sub 0) OBJ File: ''
# www.blender.org
o group_0_undefined.012
v 0.245381 -0.942687 -0.470376
v -0.245381 -0.942687 -0.470376
v -0.245381 -0.939054 -0.244815
v 0.245381 -0.939054 -0.244815
v 0.245570 -1.038112 -0.468564
v 0.471886 -1.038112 -0.468564
v 0.245570 -1.026589 0.246325
v 0.377415 0.788711 -0.416204
v 0.471792 0.788711 -0.416204
v 0.471792 0.746807 -0.435929
v 0.377415 0.746807 -0.435929
v 0.245570 -0.930938 0.244531
v -0.245664 -0.930938 0.244532
v -0.245664 -0.942489 -0.470376
v 0.245570 -0.942489 -0.470376
v 0.377415 0.566264 0.471886
v 0.377415 -0.849396 0.471886
v 0.471792 -0.849396 0.471886
v 0.471792 0.566264 0.471886
v 0.471792 -0.849396 0.468583
v 0.471792 -0.849396 -0.471886
v 0.471792 0.566264 -0.471886
v 0.377415 0.828444 -0.392326
v 0.471792 0.828444 -0.392326
v 0.377415 0.865628 -0.364768
v 0.471792 0.865628 -0.364768
v -0.471887 -0.864552 -0.471849
v 0.471886 -0.864553 -0.471849
v -0.245381 -1.034469 -0.243021
v -0.245381 -1.038150 -0.468564
v 0.245381 -1.038150 -0.468564
v 0.245381 -1.034469 -0.243021
v -0.471886 -0.849395 0.468583
v 0.377415 -0.849396 0.468583
v 0.377415 1.002192 0.180544
v 0.471792 1.002192 0.180544
v 0.471792 1.017859 0.136941
v 0.377415 1.017859 0.136941
v 0.377415 0.982467 0.222447
v 0.471792 0.982467 0.222447
v 0.377415 0.958590 0.262180
v 0.471792 0.958590 0.262180
v 0.377415 -0.849396 -0.471886
v 0.471792 0.612508 -0.469621
v 0.471792 0.658282 -0.462826
v 0.471792 0.703205 -0.451595
v 0.471792 0.899982 -0.333718
v 0.471792 0.931032 -0.299365
v 0.471792 0.958590 -0.262180
v 0.471886 -0.849396 0.468583
v 0.377415 0.931032 0.299365
v 0.471792 0.931032 0.299365
v 0.377415 0.899982 0.333718
v 0.471792 0.899982 0.333718
v 0.377415 0.566264 -0.471886
v 0.377415 0.865628 0.364768
v 0.471792 0.865628 0.364768
v -0.471886 -1.022955 0.471886
v 0.471886 -1.022955 0.471886
v 0.377415 0.899982 -0.333718
v -0.471887 -1.038112 -0.468564
v 0.377415 0.828444 0.392326
v 0.471792 0.828444 0.392326
v 0.377415 0.788711 0.416204
v 0.471792 0.788711 0.416204
v 0.471792 0.982467 -0.222447
v 0.471792 1.002192 -0.180544
v 0.471792 1.017859 -0.136941
v 0.471792 1.029090 -0.092018
v 0.471792 1.035885 -0.046245
v 0.471792 1.038150 -0.000000
v 0.471792 1.035885 0.046245
v 0.471792 1.029090 0.092018
v 0.377415 0.931032 -0.299365
v 0.377415 0.958590 -0.262180
v 0.377415 0.703205 -0.451595
v 0.377415 0.658282 -0.462826
v 0.377415 0.612508 -0.469621
v 0.377415 0.746807 0.435929
v 0.471792 0.746807 0.435929
v 0.377415 0.703205 0.451595
v 0.471792 0.703205 0.451595
v 0.377415 0.982467 -0.222447
v 0.377415 1.002192 -0.180544
v 0.377415 0.658282 0.462826
v 0.471792 0.658282 0.462826
v 0.377415 1.038150 -0.000000
v 0.377415 1.035885 0.046245
v 0.377415 1.035885 -0.046245
v 0.377415 1.029090 -0.092018
v 0.377415 1.029090 0.092018
v 0.377415 1.017859 -0.136941
v 0.377415 0.612508 0.469621
v 0.471792 0.612508 0.469621
v -0.245664 -1.038112 -0.468564
v -0.245664 -1.026589 0.246325
vn 0.0000 0.9999 -0.0161
vn 0.0000 -0.9999 0.0161
vn 0.0000 0.4259 -0.9048
vn 0.0000 -0.9999 0.0162
vn 0.0000 0.0000 1.0000
vn 1.0000 -0.0000 -0.0000
vn 0.0000 0.5151 -0.8571
vn 0.0000 0.5954 -0.8034
vn -0.0000 -0.0189 -0.9998
vn -1.0000 0.0000 0.0000
vn 0.0000 -0.9999 0.0163
vn 0.0000 0.9411 0.3381
vn 0.0000 0.0188 0.9998
vn 0.0000 0.9048 0.4259
vn 0.0000 -0.0190 -0.9998
vn 0.0000 0.8571 0.5151
vn 0.0000 -1.0000 0.0000
vn 0.0000 0.8034 0.5954
vn 0.0000 0.7419 0.6705
vn -0.0000 -0.0187 -0.9998
vn 0.0000 0.6705 0.7419
vn 0.0000 0.0190 0.9998
vn 0.0000 0.6705 -0.7419
vn 0.0000 0.5954 0.8034
vn 0.0000 0.5151 0.8571
vn 0.0000 0.7419 -0.6705
vn 0.0000 0.4259 0.9048
vn 0.0000 0.8034 -0.5954
vn 0.0000 0.3381 0.9411
vn 0.0000 0.8571 -0.5151
vn 0.0000 0.9048 -0.4259
vn 0.0000 0.2425 0.9701
vn 0.0000 0.9411 -0.3381
vn 0.0000 0.1468 0.9892
vn 0.0000 0.9701 -0.2425
vn -0.0000 0.9892 -0.1468
vn -0.0000 0.9988 -0.0489
vn 0.0000 0.9988 0.0489
vn 0.0000 0.0489 0.9988
vn 0.0000 0.9892 0.1468
vn 0.0000 0.9701 0.2425
vn 0.0000 0.0000 -1.0000
vn 0.0000 0.0489 -0.9988
vn 0.0000 0.1468 -0.9892
vn 0.0000 0.2425 -0.9701
vn 0.0000 0.3381 -0.9411
s off
f 1//1 2//1 3//1
f 1//1 3//1 4//1
f 5//2 6//2 7//2
f 8//3 9//3 10//3
f 8//3 10//3 11//3
f 12//4 13//4 14//4
f 12//4 14//4 15//4
f 16//5 17//5 18//5
f 16//5 18//5 19//5
f 20//6 21//6 22//6
f 20//6 22//6 19//6
f 20//6 19//6 18//6
f 23//7 24//7 9//7
f 23//7 9//7 8//7
f 25//8 26//8 24//8
f 25//8 24//8 23//8
f 27//9 28//9 15//9
f 27//9 15//9 14//9
f 29//10 3//10 30//10
f 2//10 30//10 3//10
f 30//11 31//11 32//11
f 32//11 29//11 30//11
f 33//1 34//1 27//1
f 20//1 28//1 34//1
f 35//12 36//12 37//12
f 35//12 37//12 38//12
f 29//13 32//13 4//13
f 29//13 4//13 3//13
f 39//14 40//14 36//14
f 39//14 36//14 35//14
f 31//15 30//15 1//15
f 2//15 1//15 30//15
f 41//16 42//16 40//16
f 41//16 40//16 39//16
f 21//17 20//17 34//17
f 21//17 34//17 43//17
f 22//6 44//6 45//6
f 22//6 45//6 46//6
f 22//6 46//6 10//6
f 22//6 10//6 9//6
f 22//6 9//6 24//6
f 22//6 24//6 26//6
f 22//6 26//6 47//6
f 22//6 47//6 48//6
f 22//6 48//6 49//6
f 27//1 34//1 28//1
f 28//1 20//1 50//1
f 51//18 52//18 42//18
f 51//18 42//18 41//18
f 17//17 34//17 20//17
f 17//17 20//17 18//17
f 6//6 28//6 50//6
f 7//10 12//10 5//10
f 53//19 54//19 52//19
f 53//19 52//19 51//19
f 12//20 7//20 13//20
f 34//10 55//10 43//10
f 17//10 16//10 34//10
f 16//10 55//10 34//10
f 1//6 4//6 31//6
f 56//21 57//21 54//21
f 56//21 54//21 53//21
f 28//9 6//9 15//9
f 58//22 59//22 34//22
f 32//6 31//6 4//6
f 60//23 47//23 26//23
f 60//23 26//23 25//23
f 58//10 33//10 61//10
f 27//10 61//10 33//10
f 62//24 63//24 57//24
f 62//24 57//24 56//24
f 64//25 65//25 63//25
f 64//25 63//25 62//25
f 22//6 49//6 66//6
f 22//6 66//6 67//6
f 22//6 67//6 68//6
f 22//6 68//6 69//6
f 22//6 69//6 70//6
f 22//6 70//6 71//6
f 22//6 71//6 72//6
f 73//6 22//6 72//6
f 37//6 22//6 73//6
f 15//10 5//10 12//10
f 60//26 74//26 48//26
f 60//26 48//26 47//26
f 60//10 25//10 74//10
f 25//10 23//10 74//10
f 75//10 74//10 23//10
f 75//10 23//10 8//10
f 75//10 8//10 11//10
f 75//10 11//10 76//10
f 77//10 78//10 75//10
f 55//10 75//10 78//10
f 76//10 77//10 75//10
f 34//22 33//22 58//22
f 79//27 80//27 65//27
f 79//27 65//27 64//27
f 74//28 75//28 49//28
f 74//28 49//28 48//28
f 59//6 6//6 50//6
f 81//29 82//29 80//29
f 81//29 80//29 79//29
f 66//30 49//30 83//30
f 75//30 83//30 49//30
f 50//22 20//22 59//22
f 83//31 84//31 67//31
f 83//31 67//31 66//31
f 85//32 86//32 82//32
f 85//32 82//32 81//32
f 5//9 15//9 6//9
f 87//10 55//10 88//10
f 89//10 55//10 87//10
f 90//10 55//10 89//10
f 91//10 88//10 55//10
f 92//10 55//10 90//10
f 84//10 55//10 92//10
f 83//10 55//10 84//10
f 75//10 55//10 83//10
f 38//10 91//10 55//10
f 59//2 7//2 6//2
f 84//33 92//33 68//33
f 84//33 68//33 67//33
f 93//34 94//34 86//34
f 93//34 86//34 85//34
f 92//35 90//35 69//35
f 92//35 69//35 68//35
f 90//36 89//36 70//36
f 90//36 70//36 69//36
f 89//37 87//37 71//37
f 89//37 71//37 70//37
f 87//38 88//38 72//38
f 87//38 72//38 71//38
f 13//6 95//6 14//6
f 96//6 95//6 13//6
f 16//39 19//39 94//39
f 16//39 94//39 93//39
f 95//9 61//9 14//9
f 27//9 14//9 61//9
f 96//20 13//20 7//20
f 88//40 91//40 73//40
f 88//40 73//40 72//40
f 37//41 73//41 38//41
f 91//41 38//41 73//41
f 85//10 55//10 93//10
f 81//10 55//10 85//10
f 79//10 55//10 81//10
f 64//10 55//10 79//10
f 62//10 55//10 64//10
f 56//10 55//10 62//10
f 53//10 55//10 56//10
f 51//10 55//10 53//10
f 41//10 55//10 51//10
f 39//10 55//10 41//10
f 35//10 55//10 39//10
f 38//10 55//10 35//10
f 16//10 93//10 55//10
f 22//6 37//6 36//6
f 22//6 36//6 40//6
f 22//6 40//6 42//6
f 22//6 42//6 52//6
f 22//6 52//6 54//6
f 22//6 54//6 57//6
f 22//6 57//6 63//6
f 22//6 63//6 65//6
f 22//6 65//6 80//6
f 22//6 80//6 82//6
f 22//6 82//6 86//6
f 22//6 86//6 94//6
f 22//6 94//6 19//6
f 43//42 55//42 22//42
f 43//42 22//42 21//42
f 78//43 44//43 22//43
f 78//43 22//43 55//43
f 96//2 7//2 58//2
f 77//44 45//44 44//44
f 77//44 44//44 78//44
f 58//2 61//2 96//2
f 95//2 96//2 61//2
f 76//45 46//45 45//45
f 76//45 45//45 77//45
f 58//2 7//2 59//2
f 11//46 10//46 46//46
f 11//46 46//46 76//46
f 20//22 34//22 59//22
